<svg height='100px' width='100px'  fill="#000000" xmlns="http://www.w3.org/2000/svg" xmlns:xlink="http://www.w3.org/1999/xlink" version="1.1" x="0px" y="0px" viewBox="0 0 100 100" enable-background="new 0 0 100 100" xml:space="preserve"><path d="M79.303,39.077c-1.014,0-2.002,0.101-2.974,0.25l-2.136-10.326v-5.209h5.604c2.385,0,4.324,1.94,4.324,4.326  s-1.939,4.326-4.324,4.326v2c3.487,0,6.324-2.838,6.324-6.326s-2.837-6.326-6.324-6.326h-7.604v7.312l0.688,3.339H38.346  l1.917-3.051v-5.199H28.596l4.338,13.103l-2.692,4.284c-2.826-1.587-6.078-2.502-9.543-2.502c-10.789,0-19.566,8.777-19.566,19.566  c0,10.789,8.777,19.566,19.566,19.566c10.451,0,18.989-8.243,19.515-18.566h4.887c0.419,2.06,2.115,3.642,4.218,3.933l4.032,9.19  h5.28v-2h-3.974l-3.228-7.354c1.748-0.524,3.104-1.96,3.473-3.769h4.887c0.525,10.322,9.064,18.564,19.516,18.564  c10.789,0,19.566-8.776,19.566-19.564C98.869,47.854,90.092,39.077,79.303,39.077z M31.364,26.192h6.899v2.623l-3.95,6.284  L31.364,26.192z M20.698,76.209c-9.686,0-17.566-7.88-17.566-17.566c0-9.686,7.88-17.566,17.566-17.566  c3.075,0,5.964,0.799,8.481,2.193L18.888,59.643h19.324C37.689,68.863,30.046,76.209,20.698,76.209z M30.865,44.345  c4.213,3.005,7.036,7.816,7.347,13.298H22.507L30.865,44.345z M50,61.645c-1.655,0-3.002-1.347-3.002-3.002s1.347-3.002,3.002-3.002  s3.002,1.347,3.002,3.002S51.655,61.645,50,61.645z M50,53.641c-2.416,0-4.436,1.722-4.901,4.002h-4.887  c-0.315-6.193-3.507-11.631-8.281-14.994l5.157-8.206h36.206l1.089,5.285C66.284,41.837,60.227,49,59.787,57.643H54.9  C54.437,55.362,52.415,53.641,50,53.641z M74.787,41.687l3.288,15.956H61.787C62.223,49.965,67.598,43.604,74.787,41.687z   M79.303,76.207c-9.349,0-16.993-7.345-17.516-16.564H80.53l-3.796-18.356c0.841-0.124,1.693-0.209,2.568-0.209  c9.687,0,17.566,7.88,17.566,17.566C96.869,68.328,88.989,76.207,79.303,76.207z"></path></svg>